<svg xmlns="http://www.w3.org/2000/svg" viewBox="0 0 2441.9 522.9"><path d="M202.9 0 92.1 142.4l55.7 71.6h221L202.9 0z" style="fill:#a8daf5"/><path d="M368.8 217.9 289.6 431l-44.3-62.4-66.4 154.3L68.2 309.8l-19.7 22L0 217.9h368.8z" style="fill:#285161"/><path d="m132.1 331.8 46.8 191.1L68.2 309.8l63.9 22zm142.7 0 14.8 99.2-44.3-62.4 29.5-36.8zm-226.3 0L0 217.9h44.1l4.4 113.9zm139 63.2-29-177.1h-44.6L187.5 395z" style="fill:#3b7893"/><path d="m74.2 119.4 73.6 94.6H0l74.2-94.6z" style="fill:#a8daf5"/><path d="m74.2 119.4-29 94.6H0l74.2-94.6zm44.6 42.4L202.9 0 92.1 142.4l55.6 71.6-28.9-52.2z" style="fill:#3b7893"/><path d="M541.5 400.7c-6.6 0-12.6-1.5-18-4.5s-8.1-7.6-8.1-13.6V102.7c0-6.3 2.7-10.9 8.1-13.6 5.4-2.7 11.4-4.1 18-4.1s12.1 1.4 17.4 4.1c5.3 2.7 7.9 7.3 7.9 13.6v279.8c0 6-2.6 10.6-7.9 13.6-5.3 3-11.1 4.5-17.4 4.5Z" style="fill:#3b7792"/><path d="M541.5 402.3c-6.9 0-13.2-1.6-18.8-4.7-5.9-3.3-9-8.4-9-15V102.7c0-7 3-12 9-15.1 5.6-2.8 11.9-4.3 18.7-4.3s12.7 1.4 18.2 4.3c5.8 3 8.8 8.1 8.8 15.1v279.8c0 6.6-2.9 11.7-8.7 15-5.5 3.2-11.6 4.8-18.2 4.8Zm0-315.7c-6.3 0-12.1 1.3-17.3 3.9-4.8 2.5-7.2 6.4-7.2 12.1v279.8c0 5.5 2.4 9.4 7.3 12.2 5.1 2.9 10.9 4.3 17.2 4.3s11.6-1.5 16.6-4.3c4.8-2.7 7.1-6.7 7.1-12.2V102.7c0-5.7-2.3-9.7-7-12.1-5-2.6-10.6-3.9-16.6-3.9Zm152.3 314.1c-6.6 0-12.5-1.5-17.8-4.5-5.3-3-7.9-7.6-7.9-13.6v-247h-58.2c-5 0-9-2.6-11.9-7.8-2.9-5.2-4.4-11.1-4.4-17.7s1.3-11.7 4-17.1c2.6-5.3 6.7-8 12.3-8h167.3c5.8 0 10 2.7 12.5 8s3.8 11 3.8 17.1-1.4 12.5-4.2 17.7c-2.8 5.2-6.8 7.8-12.1 7.8h-57.8v247c0 6-2.7 10.6-8.1 13.6-5.4 3-11.3 4.5-17.6 4.5Z" style="fill:#3b7792"/><path d="M693.8 402.3c-6.9 0-13.1-1.6-18.6-4.8-5.8-3.3-8.7-8.4-8.7-15V137.1H610c-5.6 0-10.1-2.9-13.3-8.6-3-5.4-4.6-11.6-4.6-18.5s1.4-12.3 4.1-17.8c2.9-5.9 7.5-8.9 13.7-8.9h167.3c6.5 0 11.2 3 14 8.9 2.6 5.5 3.9 11.5 3.9 17.8s-1.5 13.1-4.3 18.5c-3.1 5.7-7.6 8.6-13.5 8.6h-56.1v245.4c0 6.7-3 11.7-9 15-5.6 3.1-11.8 4.7-18.4 4.7ZM609.9 86.6c-4.9 0-8.4 2.3-10.8 7.1-2.5 5.1-3.8 10.6-3.8 16.3s1.4 12 4.1 16.9c2.6 4.7 6 6.9 10.4 6.9h59.8v248.7c0 5.5 2.3 9.4 7.1 12.2 5 2.9 10.7 4.3 17 4.3s11.7-1.5 16.8-4.3c4.9-2.7 7.3-6.7 7.3-12.2V133.8h59.4c4.7 0 8.1-2.3 10.6-6.9 2.6-4.9 4-10.6 4-16.9s-1.2-11.3-3.6-16.4c-2.2-4.7-5.8-7-11-7H609.9Z" style="fill:#3b7792"/><path d="M986.5 403.3c-16.4 0-31.5-3.2-45.5-9.7-14-6.5-25.1-17-33.4-31.5-8.3-14.5-12.5-33.9-12.5-58.1V184.4c0-24.2 4.2-43.5 12.5-58.1 8.3-14.5 19.4-25 33.4-31.5s29.3-9.7 45.9-9.7 34.7 3.4 48.9 10.1c14.1 6.8 25.2 16.2 33.2 28.3 8 12.1 12.1 26.6 12.1 43.6s-2.1 18.6-6.3 22.2c-4.2 3.6-10.7 5.4-19.4 5.4s-13.1-1.4-18-4.1c-4.9-2.7-7.5-7.3-7.7-13.6 0-3.5-.5-7.6-1.4-12.3-.9-4.8-2.7-9.4-5.3-14-2.6-4.6-6.7-8.5-12.1-11.7-5.4-3.2-12.9-4.7-22.4-4.7-13.4 0-23.7 4.1-30.9 12.3-7.1 8.2-10.7 20.8-10.7 37.8V304c0 17.3 3.6 29.9 10.9 38 7.3 8.1 17.7 12.1 31.5 12.1s16.1-1.6 21.4-4.7c5.3-3.2 9.2-7.1 11.7-11.9 2.5-4.8 4.2-9.7 5.1-14.9.9-5.2 1.6-10.1 2.2-14.7.5-6.9 3.2-11.6 7.9-14 4.7-2.4 10.5-3.7 17.4-3.7s15.6 1.9 19.8 5.6c4.2 3.7 6.3 11.1 6.3 22 0 17.3-4 32.4-12.1 45.3-8 13-19.2 22.9-33.4 29.8-14.2 6.9-30.6 10.4-49.1 10.4Z" style="fill:#285261"/><path d="M986.5 404.9c-16.5 0-32.1-3.3-46.2-9.9-14.2-6.6-25.7-17.4-34.2-32.2-8.4-14.7-12.7-34.5-12.7-58.9V184.3c0-24.4 4.3-44.2 12.7-58.9 8.4-14.8 19.9-25.6 34.2-32.2 14.1-6.5 29.8-9.9 46.6-9.9s35.3 3.5 49.6 10.3c14.3 6.9 25.7 16.6 33.9 28.9 8.2 12.3 12.3 27.3 12.3 44.5s-2.3 19.5-6.9 23.5c-4.5 3.8-11.4 5.8-20.5 5.8s-13.7-1.5-18.8-4.3c-5.4-3-8.3-8-8.6-15 0-3.4-.5-7.4-1.4-12.1-.9-4.5-2.6-9.1-5.2-13.5-2.5-4.3-6.3-8-11.5-11.1-5.1-3-12.4-4.5-21.5-4.5s-22.9 4-29.6 11.7c-6.8 7.9-10.3 20.2-10.3 36.7v119.6c0 16.8 3.5 29.2 10.5 36.9 6.9 7.7 17.1 11.5 30.2 11.5s15.5-1.5 20.5-4.5 8.7-6.8 11.1-11.2c2.4-4.6 4.1-9.4 5-14.4.9-5.1 1.6-10 2.2-14.6.6-7.4 3.5-12.6 8.8-15.3 5-2.6 11.1-3.9 18.2-3.9s16.4 2 20.9 6c4.6 4.1 6.9 11.7 6.9 23.3 0 17.5-4.1 33-12.3 46.2-8.2 13.2-19.7 23.4-34.1 30.4-14.4 7-31.1 10.5-49.8 10.5Zm.4-318.3c-16.3 0-31.5 3.2-45.2 9.6-13.6 6.3-24.6 16.7-32.7 30.8-8.1 14.2-12.2 33.5-12.2 57.3v119.6c0 23.8 4.1 43.1 12.2 57.3 8.1 14.2 19.1 24.5 32.7 30.8 13.7 6.3 28.8 9.6 44.8 9.6s34.4-3.4 48.3-10.2c13.9-6.7 24.9-16.6 32.7-29.2 7.8-12.6 11.8-27.6 11.8-44.5s-1.9-17.4-5.8-20.8c-3.9-3.4-10.2-5.2-18.7-5.2s-12.2 1.2-16.7 3.5c-4.2 2.2-6.5 6.3-7 12.7-.5 4.7-1.3 9.7-2.2 14.8-1 5.3-2.7 10.5-5.3 15.4-2.6 5-6.8 9.2-12.3 12.5-5.5 3.3-13 5-22.2 5-14.1 0-25.1-4.3-32.7-12.6-7.5-8.3-11.3-21.5-11.3-39.1V184.3c0-17.3 3.7-30.4 11.1-38.9 7.4-8.5 18.2-12.9 32.1-12.9s17.5 1.7 23.2 5c5.6 3.3 9.9 7.4 12.7 12.3 2.7 4.7 4.6 9.6 5.5 14.5.9 4.8 1.4 9.1 1.4 12.6.2 5.7 2.5 9.7 6.9 12.2 4.6 2.6 10.4 3.9 17.2 3.9s14.4-1.7 18.3-5c3.8-3.3 5.8-10.3 5.8-21 0-16.6-4-30.9-11.8-42.7-7.8-11.8-18.8-21.1-32.6-27.7-13.8-6.6-30-10-48.1-10Z" style="fill:#2a5261"/><path d="M1137.2 400.7c-7.4 0-13.4-1.9-18.2-5.6-4.7-3.7-7.1-7.9-7.1-12.5V93.2c0-5.2 2.4-9.4 7.1-12.5 4.7-3.2 10.8-4.7 18.2-4.7s13.2 1.6 18.2 4.7c5 3.2 7.5 7.3 7.5 12.5v132.6c4-8.3 10.1-15.9 18.6-22.7 8.4-6.8 18.9-10.1 31.3-10.1s23.7 4 34 11.9 18.5 18.5 24.7 31.7c6.2 13.2 9.3 27.9 9.3 44v101.9c0 6-2.6 10.6-7.9 13.6-5.3 3-11.2 4.5-17.8 4.5s-11.5-1.5-17-4.5-8.3-7.6-8.3-13.6V280.6c0-6.6-1.6-12.8-4.7-18.6-3.2-5.8-7.3-10.6-12.5-14.5-5.1-3.9-10.9-5.8-17.2-5.8s-10.4 1.6-15.4 4.7c-5 3.2-9.1 7.6-12.3 13.4-3.2 5.8-4.7 12.7-4.7 20.7v101.9c0 4.6-2.5 8.8-7.5 12.5-5 3.7-11.1 5.6-18.2 5.6Z" style="fill:#285261"/><path d="M1255.1 402.3c-6.1 0-12-1.6-17.8-4.7-6.1-3.3-9.2-8.4-9.2-15V280.7c0-6.3-1.5-12.3-4.5-17.8s-7.1-10.2-12-13.9c-4.8-3.6-10.3-5.5-16.2-5.5s-9.8 1.5-14.5 4.5c-4.8 3-8.7 7.3-11.7 12.8-3 5.5-4.5 12.2-4.5 19.9v101.9c0 5.1-2.7 9.8-8.2 13.8-5.3 3.9-11.7 5.9-19.2 5.9s-14.2-2-19.2-6c-5.1-4.1-7.7-8.7-7.7-13.8V93.2c0-5.7 2.6-10.4 7.9-13.9 5-3.3 11.4-5 19.1-5s13.8 1.7 19.1 5c5.5 3.5 8.3 8.2 8.3 13.9v126.1c3.9-6.3 9.3-12.2 15.9-17.5 8.7-7 19.6-10.5 32.3-10.5s24.5 4.1 35 12.2c10.4 8 18.9 18.9 25.2 32.3 6.3 13.4 9.5 28.5 9.5 44.7v101.9c0 6.6-2.9 11.7-8.7 15-5.5 3.2-11.8 4.8-18.6 4.8Zm-59.7-162.2c6.7 0 12.8 2.1 18.2 6.2 5.3 4 9.6 9.1 12.9 15 3.3 6 5 12.5 5 19.4v101.9c0 5.4 2.4 9.4 7.5 12.2 5.3 2.9 10.7 4.3 16.2 4.3s12-1.5 17-4.3c4.8-2.7 7.1-6.7 7.1-12.2V280.7c0-15.8-3.1-30.4-9.1-43.4-6.1-12.9-14.2-23.4-24.2-31.1-9.9-7.7-21.1-11.5-33-11.5s-22.1 3.3-30.2 9.8c-8.2 6.6-14.3 14-18.1 22.1l-3.1 6.6v-140c0-4.6-2.2-8.3-6.8-11.1-4.7-3-10.6-4.5-17.3-4.5s-12.8 1.5-17.3 4.5c-4.3 2.9-6.4 6.5-6.4 11.2v289.3c0 4.1 2.1 7.8 6.5 11.2 4.4 3.5 10.2 5.3 17.2 5.3s12.5-1.8 17.2-5.3c4.6-3.4 6.9-7.1 6.9-11.2V280.7c0-8.3 1.7-15.5 4.9-21.5 3.3-6 7.6-10.7 12.8-14 5.3-3.3 10.7-5 16.3-5Z" style="fill:#2a5261"/><path d="M1358.4 404.6c-14 0-26-4.7-36.2-14-10.2-9.3-15.2-23.8-15.2-43.4s3.9-29.2 11.7-38.4c7.8-9.2 18.6-15.7 32.4-19.4 13.8-3.7 29.9-5.6 48.1-5.6h16.2v-5.6c0-6.3-1.1-12.5-3.4-18.6-2.2-6-5.8-11.1-10.7-15.1-4.9-4-11.8-6-20.8-6s-17.7 1.1-23.1 3.2c-5.4 2.2-9.6 4.4-12.5 6.7-2.9 2.3-6.1 3.5-9.5 3.5-5.5 0-9.8-3-12.9-9.1-3-6-4.5-12.2-4.5-18.6s3.4-11.4 10.1-16.2c6.7-4.8 15-8.4 24.7-11 9.8-2.6 19.2-3.9 28.5-3.9 20.6 0 37.1 4 49.4 12.1 12.4 8.1 21.4 18.4 27.1 31.1 5.7 12.7 8.5 26.3 8.5 41v105.4c0 5.2-2.4 9.5-7.1 13-4.7 3.5-10.7 5.2-17.8 5.2s-12.1-1.7-16.4-5.2c-4.4-3.5-6.5-7.8-6.5-13v-12.1c-7.1 8.9-15.5 16.8-25.1 23.7-9.6 6.9-21.3 10.4-35 10.4Zm20.6-41.5c5.5 0 11.1-2 16.6-6 5.5-4 10.2-9.2 14-15.5 3.8-6.3 5.7-13 5.7-19.9v-9.1h-5.9c-8.7 0-17 .6-24.9 1.7-7.9 1.2-14.3 3.7-19.2 7.6-4.9 3.9-7.3 9.9-7.3 17.9s2 14 6.1 17.7c4.1 3.7 9 5.6 14.8 5.6Z" style="fill:#285261"/><path d="M1358.4 406.2c-14.3 0-26.9-4.9-37.3-14.5-10.5-9.6-15.8-24.6-15.8-44.6s4.1-30 12.1-39.5c8-9.4 19.1-16.1 33.3-20 13.9-3.8 30.3-5.7 48.5-5.7h14.6v-4c0-6.1-1.1-12.2-3.3-18-2.1-5.7-5.6-10.6-10.2-14.4-4.6-3.8-11.2-5.7-19.7-5.7s-17.4 1.1-22.5 3.1c-5.2 2.1-9.3 4.3-12 6.5-3.2 2.5-6.7 3.8-10.5 3.8-6.2 0-11-3.4-14.3-10-3.1-6.2-4.7-12.7-4.7-19.3s3.6-12.5 10.8-17.5c6.9-4.8 15.3-8.6 25.3-11.3 9.8-2.6 19.6-3.9 28.9-3.9 20.8 0 37.7 4.2 50.3 12.4 12.6 8.2 21.9 18.9 27.7 31.8 5.7 12.8 8.6 26.9 8.6 41.7v105.4c0 5.7-2.6 10.5-7.8 14.3-5 3.6-11.3 5.5-18.8 5.5s-12.8-1.9-17.4-5.5c-4.7-3.8-7.1-8.6-7.1-14.2v-7.5c-6.5 7.6-14.1 14.5-22.5 20.5-9.9 7.1-22 10.7-36 10.7Zm40.7-120.9c-17.9 0-34 1.9-47.6 5.6-13.5 3.6-24.1 10-31.6 18.9-7.5 8.9-11.3 21.4-11.3 37.4s4.9 33.2 14.7 42.2c9.8 9 21.6 13.6 35.1 13.6s24.8-3.4 34.1-10.1c9.5-6.8 17.8-14.7 24.8-23.4l2.9-3.7v16.8c0 4.7 1.9 8.5 5.9 11.7 4 3.2 9.2 4.8 15.4 4.8s12.4-1.6 16.8-4.9c4.3-3.2 6.4-7 6.4-11.6V277.2c0-14.4-2.8-27.9-8.4-40.4-5.5-12.3-14.4-22.5-26.5-30.4-12.1-7.8-28.4-11.8-48.6-11.8s-18.5 1.3-28.1 3.8c-9.5 2.5-17.7 6.2-24.2 10.8-6.3 4.5-9.4 9.3-9.4 14.8s1.5 12.1 4.4 17.8c2.8 5.5 6.5 8.2 11.4 8.2s5.8-1 8.5-3.1c3-2.4 7.3-4.7 12.9-6.9 5.6-2.2 13.6-3.4 23.8-3.4s16.7 2.2 21.8 6.4c5.1 4.2 8.8 9.5 11.2 15.8 2.3 6.2 3.5 12.7 3.5 19.1v7.3h-17.9Zm-20.2 79.5c-6.2 0-11.6-2-15.9-6-4.4-4-6.7-10.4-6.7-18.9s2.7-15 7.9-19.2c5.1-4.1 11.8-6.7 20-7.9 8-1.2 16.4-1.7 25.2-1.7h7.6v10.7c0 7.2-2 14.1-6 20.7-3.9 6.5-8.8 11.9-14.5 16-5.8 4.2-11.7 6.4-17.6 6.4Zm30.5-50.5c-8.6 0-16.9.6-24.7 1.7-7.6 1.1-13.8 3.5-18.4 7.2-4.5 3.6-6.7 9-6.7 16.6s1.9 13.1 5.6 16.5c3.8 3.5 8.3 5.2 13.7 5.2s10.4-1.9 15.6-5.7c5.3-3.9 9.9-8.9 13.6-15.1 3.6-6 5.5-12.4 5.5-19v-7.4h-4.3Z" style="fill:#2a5261"/><path d="M1532.4 400.7c-7.4 0-13.5-1.9-18.2-5.6-4.7-3.7-7.1-7.9-7.1-12.5V93.2c0-5.2 2.4-9.4 7.1-12.5 4.7-3.2 10.8-4.7 18.2-4.7s13.2 1.6 18.2 4.7c5 3.2 7.5 7.3 7.5 12.5v289.3c0 4.6-2.5 8.8-7.5 12.5-5 3.7-11.1 5.6-18.2 5.6Z" style="fill:#285261"/><path d="M1532.4 402.3c-7.7 0-14.2-2-19.2-6-5.1-4-7.7-8.7-7.7-13.8V93.2c0-5.7 2.6-10.4 7.9-13.9 5-3.3 11.4-5 19.1-5s13.8 1.7 19.1 5c5.5 3.5 8.3 8.2 8.3 13.9v289.3c0 5.1-2.8 9.8-8.2 13.8-5.3 3.9-11.7 5.9-19.2 5.9Zm0-324.7c-7 0-12.8 1.5-17.3 4.5-4.3 2.9-6.4 6.5-6.4 11.2v289.3c0 4.1 2.1 7.8 6.5 11.2 4.4 3.5 10.2 5.3 17.2 5.3s12.5-1.8 17.2-5.3c4.6-3.4 6.9-7.1 6.9-11.2V93.2c0-4.6-2.2-8.3-6.8-11.1-4.7-3-10.6-4.5-17.3-4.5Z" style="fill:#2a5261"/><path d="M1629.3 400.7c-7.4 0-13.5-1.9-18.2-5.6-4.7-3.7-7.1-7.9-7.1-12.5V93.2c0-5.2 2.4-9.4 7.1-12.5 4.7-3.2 10.8-4.7 18.2-4.7s13.2 1.6 18.2 4.7c5 3.2 7.5 7.3 7.5 12.5v289.3c0 4.6-2.5 8.8-7.5 12.5-5 3.7-11.1 5.6-18.2 5.6Z" style="fill:#285261"/><path d="M1629.3 402.3c-7.7 0-14.2-2-19.2-6-5.1-4-7.7-8.7-7.7-13.8V93.2c0-5.7 2.6-10.4 7.9-13.9 5-3.3 11.4-5 19.1-5s13.8 1.7 19.1 5c5.5 3.5 8.3 8.2 8.3 13.9v289.3c0 5.1-2.8 9.8-8.2 13.8-5.3 3.9-11.7 5.9-19.2 5.9Zm0-324.7c-7 0-12.8 1.5-17.3 4.5-4.3 2.9-6.4 6.5-6.4 11.2v289.3c0 4.1 2.1 7.8 6.5 11.2 4.4 3.5 10.2 5.3 17.2 5.3s12.5-1.8 17.2-5.3c4.6-3.4 6.9-7.1 6.9-11.2V93.2c0-4.6-2.2-8.3-6.8-11.1-4.7-3-10.6-4.5-17.3-4.5Z" style="fill:#2a5261"/><path d="M1786 404.6c-18.7 0-35.3-3.7-49.6-11-14.4-7.3-25.7-17.7-33.8-31.1-8.2-13.4-12.3-28.9-12.3-46.4v-36.7c0-15.5 3.9-29.9 11.7-43 7.8-13.1 18.2-23.6 31.2-31.5 13.1-7.9 27.6-11.9 43.7-11.9s28.3 3.5 40.5 10.4c12.3 6.9 22.2 16.4 29.9 28.5 7.6 12.1 11.5 26.2 11.5 42.3s-1.8 21.2-5.5 26.6c-3.7 5.3-8.4 8.6-14 9.9-5.7 1.3-11.5 1.9-17.6 1.9h-80.3v6.5c0 12.4 4.3 22.4 12.9 30 8.6 7.6 19.7 11.4 33.4 11.4s16-1.4 21.8-4.3c5.8-2.9 10.8-5.6 15-8.2 4.2-2.6 8.2-3.9 11.9-3.9s7.4 1.4 10.3 4.3c2.9 2.9 5.1 6.3 6.7 10.1 1.6 3.9 2.4 7.3 2.4 10.1 0 4.9-2.8 10.1-8.5 15.8-5.7 5.6-13.7 10.4-24.1 14.3-10.4 3.9-22.7 5.8-37 5.8Zm-44.7-124.8h57.8c4.5 0 7.6-.8 9.3-2.4 1.7-1.6 2.6-4.7 2.6-9.3 0-6.6-1.7-12.5-4.9-17.7-3.3-5.2-7.5-9.2-12.7-12.1-5.1-2.9-10.9-4.3-17.2-4.3s-11.7 1.4-17 4.1c-5.3 2.7-9.6 6.6-12.9 11.7-3.3 5-4.9 11-4.9 17.9v12.1Z" style="fill:#285261"/><path d="M1786 406.2c-18.9 0-35.9-3.8-50.4-11.2-14.6-7.4-26.2-18.1-34.5-31.7-8.3-13.6-12.5-29.5-12.5-47.3v-36.7c0-15.8 4-30.5 11.9-43.8 7.9-13.3 18.6-24.1 31.8-32.1 13.3-8 28.3-12.1 44.6-12.1s28.9 3.6 41.4 10.6c12.4 7 22.7 16.8 30.5 29.1 7.8 12.3 11.7 26.8 11.7 43.2s-1.9 21.8-5.8 27.5c-3.9 5.7-9 9.2-15 10.6-5.8 1.3-11.8 2-18 2H1743v4.8c0 11.8 4.1 21.5 12.3 28.8 8.2 7.3 19.1 11 32.3 11s15.5-1.4 21-4.1c5.7-2.8 10.7-5.6 14.9-8.1 9.4-5.8 18-5.4 24.2.7 3.1 3 5.4 6.6 7.1 10.7 1.7 4.1 2.5 7.7 2.5 10.8 0 5.3-3 11-9 16.9-5.8 5.8-14.1 10.7-24.7 14.6-10.6 3.9-23.2 5.9-37.6 5.9Zm-9.1-211.6c-15.7 0-30.1 3.9-42.9 11.6-12.8 7.7-23.1 18.2-30.7 31-7.6 12.8-11.4 27-11.4 42.1V316c0 17.2 4 32.5 12 45.6 8 13.1 19.1 23.3 33.2 30.5 14.1 7.2 30.5 10.8 48.9 10.8s26.2-1.9 36.4-5.7c10.1-3.8 18.1-8.5 23.6-13.9 5.3-5.3 8-10.2 8-14.6s-.8-5.9-2.3-9.5c-1.5-3.7-3.6-6.9-6.4-9.6-5.1-5.1-12.1-5.1-20.1-.2-4.3 2.6-9.4 5.4-15.2 8.3-6 3-13.6 4.5-22.5 4.5-14.1 0-25.7-4-34.5-11.9-8.9-7.9-13.4-18.4-13.4-31.2V311h81.9c5.9 0 11.7-.6 17.2-1.9 5.3-1.2 9.6-4.2 13.1-9.3 3.5-5 5.2-13.6 5.2-25.6s-3.8-29.7-11.2-41.4c-7.5-11.8-17.3-21.2-29.3-27.9-12-6.7-25.3-10.2-39.7-10.2Zm22.2 86.8h-59.4v-13.7c0-7.2 1.8-13.5 5.2-18.8 3.4-5.2 8-9.4 13.5-12.2 5.5-2.8 11.5-4.3 17.8-4.3s12.6 1.5 18 4.5 9.8 7.3 13.2 12.6c3.5 5.4 5.2 11.7 5.2 18.6s-1 8.6-3.1 10.5c-2.1 1.9-5.5 2.8-10.4 2.8Zm-56.1-3.3h56.1c4 0 6.8-.7 8.2-1.9.9-.9 2-3 2-8.1s-1.6-11.9-4.7-16.8-7.2-8.8-12.1-11.5c-4.9-2.7-10.4-4.1-16.4-4.1s-11.2 1.3-16.3 3.9c-5 2.6-9.1 6.3-12.2 11.1-3.1 4.7-4.7 10.5-4.7 17v10.4Z" style="fill:#2a5261"/><path d="M1913.8 400.7c-7.4 0-13.4-1.9-18.2-5.6-4.7-3.7-7.1-7.9-7.1-12.5V212.9c0-5.2 2.4-9.4 7.1-12.5 4.7-3.2 10.8-4.7 18.2-4.7s11.7 1.6 16 4.7c4.4 3.2 6.5 7.3 6.5 12.5v13c4-8.3 10.5-15.9 19.6-22.7 9.1-6.8 20.2-10.1 33.4-10.1s23.7 4 34 11.9 18.5 18.5 24.7 31.7c6.2 13.2 9.3 27.9 9.3 44v101.9c0 6-2.6 10.6-7.9 13.6s-11.2 4.5-17.8 4.5-11.5-1.5-17-4.5-8.3-7.6-8.3-13.6V280.7c0-6.6-1.5-12.8-4.5-18.6-3-5.8-7.2-10.6-12.5-14.5-5.3-3.9-11.1-5.8-17.4-5.8s-10.4 1.6-15.4 4.7c-5 3.2-9.1 7.6-12.3 13.4-3.2 5.8-4.7 12.7-4.7 20.7v101.9c0 4.6-2.5 8.8-7.5 12.5-5 3.7-11.1 5.6-18.2 5.6Z" style="fill:#285261"/><path d="M2031.7 402.3c-6.1 0-12-1.6-17.8-4.7-6.1-3.3-9.2-8.4-9.2-15V280.7c0-6.3-1.5-12.3-4.4-17.8-2.9-5.5-6.9-10.2-12-13.9-9.1-6.7-20.6-7.6-31-1-4.7 3-8.7 7.3-11.7 12.8-3 5.5-4.5 12.2-4.5 19.9v101.9c0 5.1-2.8 9.8-8.2 13.8-5.3 3.9-11.7 5.9-19.2 5.9s-14.2-2-19.2-6c-5.1-4-7.8-8.7-7.8-13.8V212.8c0-5.7 2.6-10.4 7.9-13.9 5-3.3 11.4-5 19.1-5s12.4 1.7 17 5.1c4.8 3.5 7.2 8.1 7.2 13.9v6.6c4.1-6.4 9.8-12.3 16.9-17.6 9.4-6.9 20.9-10.5 34.4-10.5s24.5 4.1 35 12.2c10.4 8 18.9 18.9 25.2 32.3 6.3 13.4 9.5 28.5 9.5 44.7v101.9c0 6.7-2.9 11.7-8.7 15-5.5 3.2-11.8 4.8-18.6 4.8ZM1972 240.1c6.7 0 12.8 2.1 18.4 6.1 5.4 4 9.8 9.1 12.9 15 3.1 6 4.7 12.5 4.7 19.3v101.9c0 5.4 2.4 9.4 7.4 12.2 5.3 2.9 10.7 4.3 16.2 4.3s12-1.5 17-4.3c4.8-2.7 7.1-6.7 7.1-12.2V280.5c0-15.8-3.1-30.4-9.1-43.3-6.1-12.9-14.2-23.4-24.2-31.1-9.9-7.7-21-11.5-33-11.5s-23.7 3.3-32.5 9.8c-8.8 6.6-15.3 14-19.1 22.1l-3.1 6.6v-20.3c0-4.7-1.9-8.3-5.9-11.2-4-2.9-9.1-4.4-15-4.4s-12.8 1.5-17.3 4.5c-4.3 2.9-6.4 6.5-6.4 11.2v169.7c0 4.1 2.1 7.8 6.5 11.2 4.4 3.5 10.2 5.3 17.2 5.3s12.5-1.8 17.2-5.3c4.6-3.4 6.9-7.1 6.9-11.2V280.7c0-8.3 1.7-15.5 5-21.5s7.6-10.7 12.8-14c5.2-3.3 10.7-5 16.3-5Z" style="fill:#2a5261"/><path d="M2168.5 496.1c-15.6 0-30-2.4-43.3-7.1-13.3-4.7-24-11.7-32-20.9s-12.1-20.2-12.1-32.8 2.8-20.2 8.3-27.9c5.5-7.6 12.4-13.6 20.6-17.9-5-2.6-9-6.1-12.1-10.6-3-4.5-4.5-10.1-4.5-17.1s1.9-14.6 5.7-19.6c3.8-5 8.6-9.7 14.4-14-7.9-6.6-14-14.6-18.4-24-4.4-9.3-6.5-19.6-6.5-30.9v-9.1c0-14.1 3.2-26.5 9.7-37.1 6.5-10.6 15.6-19 27.3-25 11.7-6 25.2-9.1 40.5-9.1s16.9 1.1 24.5 3.2c7.6 2.2 14.5 5.3 20.6 9.3 4.5-11.5 8.7-19.3 12.7-23.3s7.8-6 11.5-6c6.3 0 11.3 2 14.8 6 3.6 4 5.3 7.8 5.3 11.2s-.6 4.9-1.8 6.9c-1.2 2-2.7 3.7-4.5 5.2-2.6 1.7-5.7 3.8-9.1 6.3-3.4 2.4-6.6 5.8-9.5 10.1 4.7 5.8 8.2 12.2 10.5 19.2 2.2 7.1 3.4 14.8 3.4 23.1v9.1c0 13.8-3.3 26.1-9.9 36.9-6.6 10.8-15.8 19.4-27.7 25.7-11.9 6.3-25.5 9.5-40.7 9.5s-18.1-1.3-25.7-3.9c-1.3 1.2-2.4 2.4-3.4 3.9-.9 1.4-1.4 3-1.4 4.7 0 4.9 2.9 8.4 8.7 10.4 5.8 2 13.2 3.6 22.2 4.8 9 1.2 18.5 2.7 28.7 4.5 10.1 1.9 19.7 4.8 28.7 8.9 9 4 16.4 10 22.2 17.9 5.8 7.9 8.7 18.5 8.7 31.7s-4.2 29.2-12.5 39.1c-8.3 9.9-19 17.2-32 21.8-13.1 4.6-27 6.9-41.7 6.9Zm-.8-35.8c10.3 0 19-2.7 26.3-8.2 7.2-5.5 10.9-12.8 10.9-22s-1.6-10.9-4.7-14.7c-3.2-3.7-7.5-6.5-12.9-8.4-5.4-1.9-11.3-3.3-17.6-4.3-6.3-1-12.7-1.9-19-2.8-6.3 3.2-11.5 7.2-15.4 12.1-4 4.9-5.9 10.8-5.9 17.7s3.8 17 11.3 22.5c7.5 5.5 16.6 8.2 27.1 8.2Zm-.8-148.6c8.7 0 15.6-3.6 20.6-10.8 5-7.2 7.5-16.4 7.5-27.6v-9.1c0-10.6-2.4-19.6-7.3-26.8-4.9-7.2-11.9-10.8-21.2-10.8s-15.9 3.6-20.8 10.8c-4.9 7.2-7.3 16.1-7.3 26.8v8.6c0 10.9 2.4 20.2 7.3 27.6 4.9 7.5 11.9 11.2 21.2 11.2Z" style="fill:#285261"/><path d="M2168.5 497.8c-15.7 0-30.4-2.4-43.9-7.2-13.5-4.8-24.5-12-32.7-21.4-8.3-9.5-12.5-20.9-12.5-33.9s2.9-20.9 8.6-28.8c5.1-7 11.3-12.7 18.5-17-4.1-2.5-7.4-5.8-10.1-9.6-3.2-4.7-4.8-10.8-4.8-18s2-15.3 6.1-20.6c3.5-4.7 7.9-9.1 13.1-13.1-7.3-6.5-13.1-14.3-17.3-23.2-4.4-9.5-6.7-20.2-6.7-31.6v-9.1c0-14.3 3.3-27.1 9.9-38 6.6-10.9 16-19.5 27.9-25.7 11.9-6.1 25.8-9.3 41.3-9.3s17.2 1.1 25 3.3c7.1 2 13.6 4.8 19.3 8.4 4.3-10.8 8.3-18 12.3-22 4.3-4.3 8.5-6.5 12.7-6.5 6.8 0 12.2 2.2 16.1 6.6 3.8 4.3 5.8 8.5 5.8 12.3s-.7 5.5-2 7.7-3 4.1-5 5.6c-2.7 1.8-5.8 3.9-9.2 6.3-3 2.1-5.8 5.1-8.4 8.7 4.5 5.7 7.8 12 10 18.8 2.3 7.2 3.4 15.1 3.4 23.6v9.1c0 14.1-3.4 26.8-10.1 37.8-6.7 11-16.2 19.9-28.3 26.3-12 6.4-26 9.7-41.5 9.7s-17.8-1.2-25.3-3.7c-.9.9-1.7 1.9-2.4 2.9-.8 1.2-1.1 2.4-1.1 3.9 0 4.2 2.5 7 7.6 8.8 5.7 2 13 3.5 21.8 4.7 9 1.2 18.7 2.7 28.8 4.5 10.2 1.9 20 4.9 29.1 9 9.2 4.1 16.9 10.3 22.8 18.4 6 8.2 9 19.2 9 32.7s-4.3 30-12.8 40.1c-8.5 10.1-19.5 17.6-32.8 22.3-13.2 4.6-27.4 7-42.3 7Zm-2.4-303.1c-15 0-28.4 3-39.8 8.9-11.4 5.9-20.4 14.1-26.6 24.4-6.3 10.3-9.5 22.6-9.5 36.3v9.1c0 10.9 2.1 21.1 6.4 30.2 4.2 9.1 10.3 17 18 23.4l1.6 1.3-1.7 1.2c-5.6 4.2-10.4 8.8-14.1 13.7-3.6 4.7-5.4 11-5.4 18.7s1.4 12 4.3 16.1c2.9 4.2 6.7 7.6 11.5 10l2.8 1.4-2.8 1.5c-7.9 4.2-14.6 10-20 17.4-5.3 7.3-8 16.3-8 26.9s3.9 22.9 11.7 31.7c7.8 9 18.4 15.8 31.4 20.5 13.1 4.7 27.5 7 42.8 7s28.4-2.3 41.2-6.8c12.7-4.5 23.3-11.7 31.3-21.3 8-9.6 12.1-22.4 12.1-38s-2.8-23.2-8.4-30.8c-5.6-7.6-12.8-13.5-21.5-17.4-8.8-3.9-18.3-6.9-28.3-8.7-10-1.8-19.7-3.4-28.6-4.5-9-1.2-16.6-2.8-22.5-4.8-6.5-2.3-9.8-6.3-9.8-11.9s.6-3.9 1.6-5.6c1-1.6 2.2-3 3.7-4.2l.7-.6.9.3c7.4 2.5 15.9 3.8 25.2 3.8 15 0 28.4-3.1 40-9.3 11.5-6.2 20.7-14.6 27.1-25.1 6.4-10.5 9.6-22.6 9.6-36.1v-9.1c0-8.1-1.1-15.7-3.3-22.6-2.2-6.8-5.6-13.1-10.2-18.7l-.8-.9.7-1c3-4.5 6.3-8 9.9-10.6 3.4-2.5 6.5-4.6 9.2-6.3 1.6-1.2 3-2.8 4-4.6 1-1.7 1.5-3.8 1.5-6.1s-1.7-6.4-4.9-10.1c-3.3-3.7-7.7-5.5-13.6-5.5s-6.7 1.9-10.3 5.6c-3.8 3.9-7.9 11.5-12.3 22.8l-.7 1.9-1.7-1.1c-5.9-3.9-12.7-7-20.1-9.1-7.5-2.1-15.6-3.2-24.1-3.2Zm1.6 267.3c-10.8 0-20.3-2.9-28.1-8.5-7.9-5.8-12-13.8-12-23.8s2.1-13.6 6.3-18.7c4.1-5 9.4-9.3 16-12.5l.5-.2h.5c6.3.9 12.7 1.9 19 2.9 6.4 1 12.4 2.5 17.9 4.4 5.7 2 10.2 5 13.6 8.9 3.4 4 5.1 9.3 5.1 15.7 0 9.7-3.9 17.6-11.5 23.3-7.5 5.7-16.7 8.5-27.3 8.5Zm-16.7-60.4c-5.9 3-10.7 6.9-14.4 11.4-3.7 4.6-5.6 10.2-5.6 16.7s3.5 15.9 10.6 21.1c7.2 5.2 16 7.9 26.1 7.9s18.4-2.7 25.3-7.9c6.9-5.2 10.2-12 10.2-20.7s-1.5-10.2-4.4-13.6c-3-3.5-7-6.2-12.1-7.9-5.3-1.8-11.1-3.3-17.3-4.2-6.1-1-12.3-1.9-18.4-2.7Zm15.9-88.1c-9.8 0-17.4-4-22.5-12-5-7.7-7.6-17.3-7.6-28.5v-8.6c0-10.9 2.6-20.3 7.6-27.7 5.2-7.6 12.6-11.5 22.1-11.5s17.3 3.9 22.5 11.5c5 7.4 7.6 16.8 7.6 27.7v9.1c0 11.5-2.6 21.1-7.8 28.6-5.3 7.6-12.7 11.5-21.9 11.5Zm-.4-85.1c-8.5 0-14.8 3.3-19.4 10.1-4.7 6.9-7 15.6-7 25.8v8.6c0 10.6 2.4 19.6 7.1 26.7 4.6 7.1 11.1 10.5 19.8 10.5s14.5-3.3 19.2-10.1c4.8-6.9 7.2-15.9 7.2-26.7v-9.1c0-10.3-2.4-19-7-25.8-4.6-6.8-11.1-10.1-19.8-10.1Z" style="fill:#2a5261"/><path d="M2367.5 404.6c-18.7 0-35.3-3.7-49.6-11-14.4-7.3-25.7-17.7-33.8-31.1-8.2-13.4-12.3-28.9-12.3-46.4v-36.7c0-15.5 3.9-29.9 11.7-43 7.8-13.1 18.2-23.6 31.2-31.5 13.1-7.9 27.6-11.9 43.7-11.9s28.3 3.5 40.5 10.4c12.3 6.9 22.2 16.4 29.9 28.5 7.6 12.1 11.5 26.2 11.5 42.3s-1.8 21.2-5.5 26.6c-3.7 5.3-8.4 8.6-14 9.9-5.7 1.3-11.5 1.9-17.6 1.9h-80.3v6.5c0 12.4 4.3 22.4 12.9 30 8.6 7.6 19.7 11.4 33.4 11.4s16-1.4 21.8-4.3c5.8-2.9 10.8-5.6 15-8.2 4.2-2.6 8.2-3.9 11.9-3.9s7.4 1.4 10.3 4.3c2.9 2.9 5.1 6.3 6.7 10.1 1.6 3.9 2.4 7.3 2.4 10.1 0 4.9-2.8 10.1-8.5 15.8-5.7 5.6-13.7 10.4-24.1 14.3-10.4 3.9-22.7 5.8-37 5.8Zm-44.7-124.8h57.8c4.5 0 7.6-.8 9.3-2.4 1.7-1.6 2.6-4.7 2.6-9.3 0-6.6-1.6-12.5-4.9-17.7-3.3-5.2-7.5-9.2-12.7-12.1-5.1-2.9-10.9-4.3-17.2-4.3s-11.7 1.4-17 4.1c-5.3 2.7-9.6 6.6-12.9 11.7-3.3 5-4.9 11-4.9 17.9v12.1Z" style="fill:#285261"/><path d="M2367.5 406.2c-18.9 0-35.9-3.8-50.4-11.2-14.6-7.4-26.2-18.1-34.5-31.7-8.3-13.6-12.5-29.5-12.5-47.3v-36.7c0-15.8 4-30.5 11.9-43.8 7.9-13.3 18.6-24.1 31.8-32.1 13.3-8 28.3-12.1 44.6-12.1s28.9 3.6 41.4 10.6c12.4 7 22.7 16.8 30.4 29.1 7.8 12.3 11.7 26.8 11.7 43.2s-1.9 21.8-5.8 27.5c-3.9 5.7-9 9.2-15 10.6-5.8 1.3-11.8 2-18 2h-78.7v4.8c0 11.8 4.1 21.5 12.3 28.8 8.2 7.3 19.1 11 32.3 11s15.5-1.4 21-4.1c5.7-2.8 10.7-5.5 14.9-8.1 9.4-5.7 18-5.4 24.2.7 3.1 3 5.4 6.6 7.1 10.7 1.7 4.1 2.5 7.7 2.5 10.8 0 5.3-3 11-9 16.9-5.8 5.8-14.1 10.7-24.7 14.6-10.6 3.9-23.2 5.9-37.6 5.9Zm-9.1-211.6c-15.7 0-30.1 3.9-42.9 11.6-12.8 7.7-23.1 18.2-30.7 31-7.6 12.8-11.4 26.9-11.4 42.1V316c0 17.2 4 32.5 12 45.6 8 13.1 19.1 23.3 33.2 30.5 14.1 7.2 30.5 10.8 48.9 10.8s26.2-1.9 36.4-5.7c10.1-3.8 18.1-8.5 23.5-13.9 5.3-5.3 8-10.2 8-14.6s-.8-5.8-2.3-9.5c-1.5-3.7-3.6-6.9-6.4-9.6-5.1-5-12.1-5.1-20.1-.2-4.3 2.6-9.4 5.4-15.2 8.3-6 3-13.6 4.5-22.5 4.5-14.1 0-25.7-4-34.5-11.9-8.9-7.9-13.4-18.4-13.4-31.2V311h82c5.9 0 11.7-.6 17.2-1.9 5.3-1.2 9.6-4.2 13.1-9.3 3.5-5 5.2-13.6 5.2-25.6s-3.8-29.7-11.2-41.4c-7.5-11.8-17.3-21.2-29.3-27.9-12-6.7-25.3-10.2-39.7-10.2Zm22.2 86.8h-59.4v-13.7c0-7.2 1.8-13.5 5.2-18.8 3.4-5.3 8-9.4 13.5-12.2 5.5-2.8 11.5-4.3 17.8-4.3s12.6 1.5 18 4.5 9.8 7.3 13.2 12.6c3.4 5.4 5.2 11.7 5.2 18.6s-1 8.6-3.1 10.5c-2.1 1.9-5.5 2.8-10.4 2.8Zm-56.1-3.3h56.1c4 0 6.8-.7 8.2-1.9.9-.9 2-3 2-8.1s-1.6-11.9-4.7-16.8-7.2-8.8-12.1-11.5c-4.9-2.7-10.4-4.1-16.4-4.1s-11.2 1.3-16.3 3.9c-5 2.6-9.1 6.3-12.2 11.1-3.1 4.7-4.7 10.5-4.7 17v10.4Z" style="fill:#2a5261"/></svg>